# xmcd
#
# Track frame offsets:
#	150
#	15577
#	31287
#	46437
#	61752
#	77623
#	90824
#	115922
#	144988
#	157881
#	175928
#	194184
#	228857
#	264055
#	283821
#	313706
#	333091
#
# Disc length: 4719 seconds
#
# Revision: 0
# Processed by: cddbd v1.5.2PL0 Copyright (c) Steve Scherf et al.
# Submitted via: EasyCDDAExtractor 16.0.6.1
#
DISCID=d2126d11
DTITLE=Συλλογικός δίσκος - Κρήτη, παντ. μουσικό εργαστήρι
DYEAR=2006
DGENRE=Κρητική
TTITLE0=Μπερνιδάκης Γιάννης (Μπαξεβάνης) - Χανιώτικος στααφιδιανός [λύρα Ανδρέ
TTITLE0=ας Ροδινός
TTITLE1=Μπαξεβάνης Γιάννης - Όσο βαρούν τα σίδερα [Στέλιος Φουσταλιέρης]
TTITLE2=Μπερνιδάκης Γιάννης (Μπαξεβάνης) - Διπλά θα πάρω τα βουνά
TTITLE3=Κουτσουρέλης Στέλιος - Συρτός του Κουτσουρέλη
TTITLE4=Δερμιτζάκης Γιάννης - Μέσα στον πόνο είν' η χαρά
TTITLE5=Ναύτης Κώστας - Μπαλαμπιανός συρτός
TTITLE6=Πασπαράκης Μανώλης-χορωδία - Ανωγειανή παρέα [Μανώλης Στραβός]
TTITLE7=Μουντάκης Κώστας - Συρτά
TTITLE8=Σκορδαλός Θανάσης - Όλοι μού λένε γιάντα κλαις
TTITLE9=Άνευ ερμηνευτού - Μεσσαρίτικες κοντυλιές [οργ., Γιώργης βυσσινός]
TTITLE10=Μανιάς Νίκος - Μ' έκανες και σ' αγάπησα [Βαγγ. Μαρκογιαννάκης]
TTITLE11=Ψαραντώνης - Κοντυλιές 1965-75
TTITLE12=Ξυλούρης Νίκος - Οι πέρδικες (Κοντυλιές)
TTITLE13=Γαργανουράκης Χαράλαμπος - Άστρα μη με μαλώνετε
TTITLE14=Άνευ ερμηνευτού - Οι καμπάνες [σόλο λαούτο, Γιώργης Ξυλούρης]
TTITLE15=Άνευ ερμηνευτού - Πεντοζάλι [παραδοσιακό, διασκ. Γιώργης Ξυλούρης]
TTITLE16=Άνευ ερμηνευτού - Πηδηχτός καστρινός χορός [παραδοσιακό, διασκ. Γιώργ
TTITLE16=ης Ξυλούρης]
EXTD=
EXTT0=
EXTT1=
EXTT2=
EXTT3=
EXTT4=
EXTT5=
EXTT6=
EXTT7=
EXTT8=
EXTT9=
EXTT10=
EXTT11=
EXTT12=
EXTT13=
EXTT14=
EXTT15=
EXTT16=
PLAYORDER=
